# xmcd CD database file
#
# Track frame offsets:
#	150
#	60642
#	84600
#	158025
#	216787
#
# Disc length: 3357 seconds
#
# Revision: 0
# Processed by: cddbd v1.5.2PL0 Copyright (c) Steve Scherf et al.
# Submitted via: CDex 1.70beta2
#
DISCID=3b0d1b05
DTITLE=V.S.O.P. The Quintet - The Best Of V.S.O.P.
DYEAR=1900
DGENRE=Jazz
TTITLE0=Maiden Voyage　処女航海「ニューポートの追想」より
TTITLE1=Nefertiti　ネフェルティティ「ニューポートの追想」より
TTITLE2=Eye Of The Hurricane　アイ・オブ・ハリケーン「熱狂のコロシアム」より
TTITLE3=Eighty-One　８１「熱狂のコロシアム」より
TTITLE4=Stella By Starlight/On Green Dolphin Street　星影のステラ～恩･グリーン・ドルフィン・ストリート
EXTD=
EXTT0=
EXTT1=
EXTT2=
EXTT3=
EXTT4=
PLAYORDER=
